<svg width="24" height="24" viewBox="0 0 24 24" fill="none" xmlns="http://www.w3.org/2000/svg">
<path d="M6.00013 1.79999C6.00013 1.52172 5.8088 1.27997 5.53799 1.21603C5.26345 1.15123 4.9913 1.28986 4.86178 1.53489C4.8354 1.58515 4.80637 1.63408 4.77664 1.6824C4.71217 1.78715 4.61364 1.93512 4.48162 2.10017C4.21414 2.43451 3.82813 2.81517 3.3318 3.06333C3.03541 3.21153 2.91528 3.57192 3.06348 3.86831C3.21167 4.1647 3.57208 4.28484 3.86846 4.13664C4.22824 3.95676 4.53842 3.73308 4.80013 3.50187V6.59999C4.80013 6.93136 5.06876 7.19999 5.40013 7.19999C5.7315 7.19999 6.00013 6.93136 6.00013 6.59999V1.79999Z" fill="white"/>
<path d="M3.1757 9.17584C2.9414 9.41017 2.94144 9.79007 3.17576 10.0244C3.40871 10.2573 3.78548 10.2586 4.0201 10.0285L4.02798 10.0212C4.0375 10.0127 4.05493 9.99761 4.07986 9.97802C4.12998 9.93863 4.20851 9.88258 4.31188 9.82568C4.51822 9.71212 4.8124 9.60104 5.17553 9.60004C5.44825 9.60546 5.66864 9.67775 5.80478 9.77857C5.91967 9.86364 6 9.98339 6 10.2001C6 10.4429 5.91575 10.5831 5.74714 10.7236C5.5655 10.875 5.32963 10.9917 5.00531 11.1522C4.95029 11.1795 4.89194 11.2083 4.83168 11.2385C4.45519 11.4267 3.98842 11.6747 3.62478 12.0747C3.23903 12.499 3 13.0571 3 13.8001C3 14.1316 3.26863 14.4001 3.6 14.4001H6.59933C6.9307 14.4001 7.2 14.1316 7.2 13.8001C7.2 13.4688 6.93137 13.2001 6.6 13.2001H4.3071C4.3615 13.0721 4.43296 12.9696 4.51272 12.8819C4.71158 12.6631 4.99481 12.4985 5.36832 12.3118C5.41447 12.2887 5.46308 12.2649 5.51352 12.2401C5.82786 12.0859 6.21425 11.8964 6.51536 11.6455C6.90925 11.3172 7.2 10.8574 7.2 10.2001C7.2 9.5948 6.9327 9.1206 6.51893 8.8142C6.12725 8.52415 5.63982 8.40768 5.19076 8.40011L5.18066 8.40002C4.56551 8.4 4.07113 8.58844 3.73328 8.77438C3.56407 8.86751 3.4313 8.96147 3.33829 9.03458C3.29164 9.07126 3.25454 9.10303 3.22741 9.12733C3.21383 9.13949 3.2027 9.14982 3.19408 9.15799L3.18301 9.16864L3.17888 9.17268L3.17718 9.17437L3.1757 9.17584ZM3.19408 9.15799L3.1757 9.17584C3.1757 9.17584 3.29652 9.06814 3.19408 9.15799Z" fill="white"/>
<path d="M5.10013 18C4.76876 18 4.50013 18.2687 4.50013 18.6C4.50013 18.9313 4.76876 19.2 5.10013 19.2C5.51148 19.2 5.7388 19.316 5.8533 19.4197C5.96641 19.5222 6.01286 19.6493 6.00805 19.7775C5.99935 20.0096 5.785 20.4 5.10013 20.4C4.60512 20.4 4.34875 20.2779 4.23295 20.2008C4.17228 20.1603 4.13968 20.1252 4.12669 20.1096L4.12178 20.1035C3.96539 19.8278 3.61862 19.7199 3.3318 19.8633C3.03541 20.0115 2.91528 20.3719 3.06348 20.6683L3.06433 20.67L3.06522 20.6718L3.06713 20.6755L3.07138 20.6837L3.08178 20.7025C3.08958 20.7163 3.09914 20.7323 3.11066 20.7503C3.13369 20.786 3.16459 20.8296 3.20483 20.8778C3.28559 20.9748 3.40298 21.0896 3.56731 21.1992C3.90151 21.422 4.39514 21.6 5.10013 21.6C6.33527 21.6 7.17091 20.7903 7.20721 19.8224C7.22375 19.3815 7.06558 18.9396 6.73151 18.6C7.06558 18.2604 7.22375 17.8184 7.20721 17.3775C7.17091 16.4096 6.33527 15.6 5.10013 15.6C4.39514 15.6 3.90151 15.7779 3.56731 16.0008C3.40298 16.1103 3.28559 16.2252 3.20483 16.3221C3.16459 16.3704 3.13369 16.4139 3.11066 16.4497C3.09914 16.4677 3.08958 16.4837 3.08178 16.4975L3.07138 16.5163L3.06713 16.5245L3.06522 16.5282L3.06433 16.53L3.06348 16.5317C2.91528 16.8281 3.03541 17.1884 3.3318 17.3366C3.61862 17.48 3.96539 17.3721 4.12178 17.0965L4.12669 17.0904C4.13968 17.0748 4.17228 17.0396 4.23295 16.9992C4.34875 16.922 4.60512 16.8 5.10013 16.8C5.785 16.8 5.99935 17.1903 6.00805 17.4224C6.01286 17.5507 5.96641 17.6778 5.8533 17.7803C5.7388 17.8839 5.51148 18 5.10013 18ZM4.12178 17.0965L4.11935 17.0997L4.12007 17.0987C4.12007 17.0987 4.123 17.094 4.1258 17.0891L4.13068 17.0802L4.13358 17.0747L4.13515 17.0715L4.13638 17.0691C4.13171 17.0784 4.12685 17.0875 4.12178 17.0965Z" fill="white"/>
<path d="M10.1997 4.79999C9.86833 4.79999 9.59971 5.06862 9.59971 5.39999C9.59971 5.73136 9.86833 5.99999 10.1997 5.99999H19.7998C20.1311 5.99999 20.3998 5.73136 20.3998 5.39999C20.3998 5.06862 20.1311 4.79999 19.7998 4.79999H10.1997Z" fill="white"/>
<path d="M10.1997 10.8C9.86833 10.8 9.59971 11.0686 9.59971 11.4C9.59971 11.7314 9.86833 12 10.1997 12H19.7998C20.1311 12 20.3998 11.7314 20.3998 11.4C20.3998 11.0686 20.1311 10.8 19.7998 10.8H10.1997Z" fill="white"/>
<path d="M9.59971 17.4C9.59971 17.0687 9.86833 16.8 10.1997 16.8H19.7998C20.1311 16.8 20.3998 17.0687 20.3998 17.4C20.3998 17.7313 20.1311 18 19.7998 18H10.1997C9.86833 18 9.59971 17.7313 9.59971 17.4Z" fill="white"/>
</svg>
