<svg width="24" height="24" viewBox="0 0 48 48" fill="none" xmlns="http://www.w3.org/2000/svg">
<path fill-rule="evenodd" clip-rule="evenodd" d="M37 47H11C8.791 47 7 45.209 7 43V5C7 2.791 8.791 1 11 1H29.973C29.975 1 29.978 1 29.98 1H30C30.32 1 30.593 1.161 30.776 1.395L40.605 11.224C40.84 11.407 41 11.68 41 12V12.021C41 12.023 41 12.024 41 12.026V43C41 45.209 39.209 47 37 47ZM31 4.381V11H37.619L31 4.381ZM39 13H30C29.447 13 29 12.552 29 12V3H11C9.896 3 9 3.896 9 5V43C9 44.104 9.896 45 11 45H37C38.104 45 39 44.104 39 43V13ZM33 39H15C14.447 39 14 38.553 14 38C14 37.448 14.447 37 15 37H33C33.553 37 34 37.448 34 38C34 38.553 33.553 39 33 39ZM33 31H15C14.447 31 14 30.553 14 30C14 29.448 14.447 29 15 29H33C33.553 29 34 29.448 34 30C34 30.553 33.553 31 33 31ZM33 23H15C14.447 23 14 22.553 14 22C14 21.448 14.447 21 15 21H33C33.553 21 34 21.448 34 22C34 22.553 33.553 23 33 23Z" fill="white"/>
</svg>
